<svg width="1200" height="360" viewBox="0 0 1200 360" fill="none" xmlns="http://www.w3.org/2000/svg" role="img" aria-labelledby="title desc">
  <title id="title">Pakon Poomson profile header</title>
  <desc id="desc">Technical portfolio banner for AI Engineer and Data Engineer work.</desc>
  <rect width="1200" height="360" rx="28" fill="#0B1120"/>
  <path d="M0 88H1200M0 176H1200M0 264H1200M120 0V360M240 0V360M360 0V360M480 0V360M600 0V360M720 0V360M840 0V360M960 0V360M1080 0V360" stroke="#1E293B" stroke-width="1"/>
  <circle cx="160" cy="78" r="5" fill="#38BDF8"/>
  <circle cx="286" cy="132" r="5" fill="#22C55E"/>
  <circle cx="408" cy="102" r="5" fill="#818CF8"/>
  <circle cx="782" cy="238" r="5" fill="#38BDF8"/>
  <circle cx="924" cy="188" r="5" fill="#22C55E"/>
  <circle cx="1038" cy="252" r="5" fill="#818CF8"/>
  <path d="M160 78L286 132L408 102" stroke="#38BDF8" stroke-width="2" stroke-linecap="round"/>
  <path d="M782 238L924 188L1038 252" stroke="#22C55E" stroke-width="2" stroke-linecap="round"/>
  <path d="M80 286C130 236 172 336 222 286C272 236 314 336 364 286C414 236 456 336 506 286" stroke="#334155" stroke-width="3" stroke-linecap="round"/>
  <path d="M694 82H1084" stroke="#1E40AF" stroke-width="10" stroke-linecap="round" opacity="0.5"/>
  <path d="M694 116H1004" stroke="#0EA5E9" stroke-width="10" stroke-linecap="round" opacity="0.55"/>
  <path d="M694 150H1110" stroke="#22C55E" stroke-width="10" stroke-linecap="round" opacity="0.45"/>
  <rect x="72" y="62" width="430" height="156" rx="20" fill="#111827" stroke="#243244"/>
  <text x="104" y="124" fill="#F8FAFC" font-family="Segoe UI, Arial, sans-serif" font-size="44" font-weight="700">Pakon Poomson</text>
  <text x="106" y="164" fill="#93C5FD" font-family="Segoe UI, Arial, sans-serif" font-size="24" font-weight="600">AI Engineer / Data Engineer</text>
  <text x="106" y="199" fill="#CBD5E1" font-family="Segoe UI, Arial, sans-serif" font-size="20">RAG / LLM Apps / Data Platforms / ML/MLOps</text>
  <rect x="676" y="204" width="392" height="84" rx="18" fill="#0F172A" stroke="#243244"/>
  <text x="704" y="239" fill="#E2E8F0" font-family="Segoe UI, Arial, sans-serif" font-size="18" font-weight="600">Evidence-first AI/Data portfolio</text>
  <text x="704" y="267" fill="#94A3B8" font-family="Segoe UI, Arial, sans-serif" font-size="16">Local demos / typed APIs / validation gates</text>
</svg>
